<mxfile host="65bd71144e">
    <diagram id="RsIdBPM_8vTTZZchia6I" name="第 1 页">
        <mxGraphModel dx="990" dy="574" grid="1" gridSize="10" guides="1" tooltips="1" connect="1" arrows="1" fold="1" page="1" pageScale="1" pageWidth="1169" pageHeight="827" background="#FFFF61" math="0" shadow="0">
            <root>
                <mxCell id="0"/>
                <mxCell id="1" parent="0"/>
                <mxCell id="T1ekDT1JVOHgqmzILH7V-34" value="" style="fillColor=#fff2cc;rounded=0;strokeColor=#d6b656;fontFamily=Helvetica;fontSize=12;html=1;movable=1;resizable=1;rotatable=1;deletable=1;editable=1;connectable=1;" parent="1" vertex="1">
                    <mxGeometry x="160" y="1270" width="2140" height="20" as="geometry"/>
                </mxCell>
                <mxCell id="Er0_FSA5xdFPDI5IZl6u-3" value="" style="fillColor=#fff2cc;rounded=0;strokeColor=#d6b656;fontFamily=Helvetica;fontSize=12;html=1;movable=1;resizable=1;rotatable=1;deletable=1;editable=1;connectable=1;" parent="1" vertex="1">
                    <mxGeometry x="160" y="370" width="2120" height="20" as="geometry"/>
                </mxCell>
                <mxCell id="Lcyl5jMZLTwqMklo087K-77" value="" style="fillColor=#fff2cc;rounded=0;strokeColor=#d6b656;fontFamily=Helvetica;fontSize=12;html=1;movable=1;resizable=1;rotatable=1;deletable=1;editable=1;connectable=1;" parent="1" vertex="1">
                    <mxGeometry x="160" y="730" width="2130" height="20" as="geometry"/>
                </mxCell>
                <mxCell id="Lcyl5jMZLTwqMklo087K-66" value="" style="group;fontSize=10;" parent="1" vertex="1" connectable="0">
                    <mxGeometry x="1840" y="621" width="200" height="140" as="geometry"/>
                </mxCell>
                <mxCell id="Lcyl5jMZLTwqMklo087K-67" value="&lt;font style=&quot;font-size: 16px;&quot;&gt;2013年9月13日凌晨&lt;br style=&quot;font-size: 16px;&quot;&gt;解忧杂货店&lt;/font&gt;" style="shape=mxgraph.infographic.ribbonSimple;notch1=0;notch2=25.6;notch=0;html=1;fillColor=#08CEFF;strokeColor=none;shadow=0;fontSize=16;fontColor=#FFFFFF;align=left;spacingLeft=10;fontStyle=1;rounded=1;fontFamily=Helvetica;" parent="Lcyl5jMZLTwqMklo087K-66" vertex="1">
                    <mxGeometry x="10" y="100" width="180" height="40" as="geometry"/>
                </mxCell>
                <mxCell id="Lcyl5jMZLTwqMklo087K-68" value="&lt;font style=&quot;font-size: 14px;&quot;&gt;&lt;b style=&quot;&quot;&gt;&lt;font color=&quot;#08ceff&quot;&gt;收到回信的人们&lt;/font&gt;&lt;br&gt;&lt;/b&gt;&lt;br&gt;回到杂货店&lt;br style=&quot;font-size: 14px;&quot;&gt;&lt;/font&gt;" style="rounded=1;strokeColor=none;fillColor=#DDDDDD;align=center;arcSize=12;verticalAlign=top;whiteSpace=wrap;html=1;fontSize=14;fontFamily=Helvetica;fontColor=default;" parent="Lcyl5jMZLTwqMklo087K-66" vertex="1">
                    <mxGeometry width="200" height="90" as="geometry"/>
                </mxCell>
                <mxCell id="Lcyl5jMZLTwqMklo087K-79" value="" style="group" parent="1" vertex="1" connectable="0">
                    <mxGeometry x="480" y="620" width="200" height="140" as="geometry"/>
                </mxCell>
                <mxCell id="Lcyl5jMZLTwqMklo087K-80" value="19??年解忧杂货店" style="shape=mxgraph.infographic.ribbonSimple;notch1=0;notch2=25.6;notch=0;html=1;fillColor=#08CEFF;strokeColor=none;shadow=0;fontSize=17;fontColor=#FFFFFF;align=left;spacingLeft=10;fontStyle=1;rounded=1;fontFamily=Helvetica;" parent="Lcyl5jMZLTwqMklo087K-79" vertex="1">
                    <mxGeometry x="10" y="100" width="180" height="40" as="geometry"/>
                </mxCell>
                <mxCell id="Lcyl5jMZLTwqMklo087K-81" value="&lt;font style=&quot;font-size: 14px;&quot;&gt;&lt;b style=&quot;&quot;&gt;&lt;font color=&quot;#08ceff&quot;&gt;浪矢雄治&lt;/font&gt;&lt;br&gt;&lt;/b&gt;开始烦恼咨询&lt;br&gt;转为写信咨询&lt;br&gt;给川边绿回信&lt;br style=&quot;font-size: 14px;&quot;&gt;&lt;/font&gt;" style="rounded=1;strokeColor=none;fillColor=#DDDDDD;align=center;arcSize=12;verticalAlign=top;whiteSpace=wrap;html=1;fontSize=14;fontFamily=Helvetica;fontColor=default;" parent="Lcyl5jMZLTwqMklo087K-79" vertex="1">
                    <mxGeometry width="200" height="90" as="geometry"/>
                </mxCell>
                <mxCell id="Lcyl5jMZLTwqMklo087K-82" value="" style="group" parent="1" vertex="1" connectable="0">
                    <mxGeometry x="900" y="620" width="200" height="140" as="geometry"/>
                </mxCell>
                <mxCell id="Lcyl5jMZLTwqMklo087K-83" value="1979年9月家中" style="shape=mxgraph.infographic.ribbonSimple;notch1=0;notch2=25.6;notch=0;html=1;fillColor=#08CEFF;strokeColor=none;shadow=0;fontSize=17;fontColor=#FFFFFF;align=left;spacingLeft=10;fontStyle=1;rounded=1;fontFamily=Helvetica;" parent="Lcyl5jMZLTwqMklo087K-82" vertex="1">
                    <mxGeometry x="20" y="100" width="160" height="40" as="geometry"/>
                </mxCell>
                <mxCell id="Lcyl5jMZLTwqMklo087K-84" value="&lt;font style=&quot;font-size: 14px;&quot;&gt;&lt;b style=&quot;&quot;&gt;&lt;font color=&quot;#08ceff&quot;&gt;浪矢骏吾&lt;br&gt;&lt;/font&gt;&lt;/b&gt;回到解忧杂货店&lt;br&gt;收取来自未来的信&lt;br&gt;写下最后一封回信&lt;br style=&quot;font-size: 14px;&quot;&gt;&lt;/font&gt;" style="rounded=1;strokeColor=none;fillColor=#DDDDDD;align=center;arcSize=12;verticalAlign=top;whiteSpace=wrap;html=1;fontSize=14;fontFamily=Helvetica;fontColor=default;" parent="Lcyl5jMZLTwqMklo087K-82" vertex="1">
                    <mxGeometry width="200" height="90" as="geometry"/>
                </mxCell>
                <mxCell id="Lcyl5jMZLTwqMklo087K-105" value="" style="group" parent="1" vertex="1" connectable="0">
                    <mxGeometry x="1140" y="620" width="200" height="140" as="geometry"/>
                </mxCell>
                <mxCell id="Lcyl5jMZLTwqMklo087K-75" value="1980年9月" style="shape=mxgraph.infographic.ribbonSimple;notch1=0;notch2=25.6;notch=0;html=1;fillColor=#08CEFF;strokeColor=none;shadow=0;fontSize=17;fontColor=#FFFFFF;align=left;spacingLeft=10;fontStyle=1;rounded=1;fontFamily=Helvetica;" parent="Lcyl5jMZLTwqMklo087K-105" vertex="1">
                    <mxGeometry x="20" y="100" width="160" height="40" as="geometry"/>
                </mxCell>
                <mxCell id="Lcyl5jMZLTwqMklo087K-76" value="&lt;font style=&quot;font-size: 14px;&quot;&gt;&lt;b style=&quot;&quot;&gt;&lt;font color=&quot;#08ceff&quot;&gt;浪矢骏吾&lt;br&gt;&lt;/font&gt;&lt;br&gt;&lt;/b&gt;去世&lt;br&gt;&lt;br style=&quot;font-size: 14px;&quot;&gt;&lt;/font&gt;" style="rounded=1;strokeColor=none;fillColor=#DDDDDD;align=center;arcSize=12;verticalAlign=top;whiteSpace=wrap;html=1;fontSize=14;fontFamily=Helvetica;fontColor=default;" parent="Lcyl5jMZLTwqMklo087K-105" vertex="1">
                    <mxGeometry width="200" height="90" as="geometry"/>
                </mxCell>
                <mxCell id="Lcyl5jMZLTwqMklo087K-106" value="" style="group" parent="1" vertex="1" connectable="0">
                    <mxGeometry x="1630" y="621" width="200" height="140" as="geometry"/>
                </mxCell>
                <mxCell id="Lcyl5jMZLTwqMklo087K-62" value="2012年9月家中" style="shape=mxgraph.infographic.ribbonSimple;notch1=0;notch2=25.6;notch=0;html=1;fillColor=#08CEFF;strokeColor=none;shadow=0;fontSize=17;fontColor=#FFFFFF;align=left;spacingLeft=10;fontStyle=1;rounded=1;fontFamily=Helvetica;" parent="Lcyl5jMZLTwqMklo087K-106" vertex="1">
                    <mxGeometry x="20" y="100" width="160" height="40" as="geometry"/>
                </mxCell>
                <mxCell id="Lcyl5jMZLTwqMklo087K-63" value="&lt;font style=&quot;font-size: 14px;&quot;&gt;&lt;b style=&quot;&quot;&gt;&lt;font color=&quot;#08ceff&quot;&gt;浪矢骏吾&lt;br&gt;&lt;/font&gt;&lt;br&gt;&lt;/b&gt;发布复活信息&lt;br&gt;&lt;br style=&quot;font-size: 14px;&quot;&gt;&lt;/font&gt;" style="rounded=1;strokeColor=none;fillColor=#DDDDDD;align=center;arcSize=12;verticalAlign=top;whiteSpace=wrap;html=1;fontSize=14;fontFamily=Helvetica;fontColor=default;" parent="Lcyl5jMZLTwqMklo087K-106" vertex="1">
                    <mxGeometry width="200" height="90" as="geometry"/>
                </mxCell>
                <mxCell id="Lcyl5jMZLTwqMklo087K-109" value="解忧杂货店" style="html=1;shape=mxgraph.infographic.banner;dx=32;dy=17;notch=15;fillColor=#FFB366;strokeColor=none;align=center;verticalAlign=middle;fontColor=#000000;fontSize=25;fontStyle=1;spacingBottom=15;rounded=1;fontFamily=Helvetica;" parent="1" vertex="1">
                    <mxGeometry x="950" y="60" width="440" height="110" as="geometry"/>
                </mxCell>
                <mxCell id="BkZdQL9q9m6PkunKn8Eg-16" value="" style="group;fontSize=10;" parent="1" vertex="1" connectable="0">
                    <mxGeometry x="2010" y="260" width="200" height="160" as="geometry"/>
                </mxCell>
                <mxCell id="BkZdQL9q9m6PkunKn8Eg-17" value="&lt;font style=&quot;font-size: 16px;&quot;&gt;2013年9月13日，浩&lt;br&gt;介酒馆&lt;/font&gt;" style="shape=mxgraph.infographic.ribbonSimple;notch1=0;notch2=25.6;notch=0;html=1;fillColor=#60a917;strokeColor=#2D7600;shadow=0;fontSize=17;fontColor=#ffffff;align=left;spacingLeft=10;fontStyle=1;rounded=1;fontFamily=Helvetica;gradientColor=none;" parent="BkZdQL9q9m6PkunKn8Eg-16" vertex="1">
                    <mxGeometry x="10" y="100" width="180" height="40" as="geometry"/>
                </mxCell>
                <mxCell id="BkZdQL9q9m6PkunKn8Eg-18" value="浩介回到小镇&lt;br&gt;在小酒馆喝酒，顺便写回信。&lt;font&gt;&lt;font color=&quot;#08ceff&quot;&gt;&lt;b&gt;&lt;br&gt;&lt;/b&gt;&lt;/font&gt;邂逅了绿河的女儿，小芹经纪人&lt;br style=&quot;font-size: 14px;&quot;&gt;&lt;/font&gt;" style="rounded=1;strokeColor=none;fillColor=#DDDDDD;align=center;arcSize=12;verticalAlign=top;whiteSpace=wrap;html=1;fontSize=14;fontFamily=Helvetica;fontColor=default;" parent="BkZdQL9q9m6PkunKn8Eg-16" vertex="1">
                    <mxGeometry width="200" height="90" as="geometry"/>
                </mxCell>
                <mxCell id="BkZdQL9q9m6PkunKn8Eg-15" value="&lt;font style=&quot;font-size: 14px;&quot;&gt;第三章，年近八十，结束咨询。而他三十岁左右的时候给良和写信。晴美说60多年前。那应该是50年代的故事。&lt;br&gt;去世时间是&lt;br&gt;骏吾发布信息的时间倒推33年。&lt;br style=&quot;font-size: 14px;&quot;&gt;&lt;/font&gt;" style="rounded=1;strokeColor=none;fillColor=#DDDDDD;align=center;arcSize=12;verticalAlign=top;whiteSpace=wrap;html=1;fontSize=14;fontFamily=Helvetica;fontColor=default;" parent="1" vertex="1">
                    <mxGeometry x="70" y="811" width="210" height="125" as="geometry"/>
                </mxCell>
                <mxCell id="Er0_FSA5xdFPDI5IZl6u-1" value="&lt;font style=&quot;font-size: 14px;&quot;&gt;第四章第一节说鱼店消失了&lt;br&gt;第七节可以推断火灾发生年份，皆月良和过世时间&lt;br&gt;第九节讲到，三十二年前的忌日是最后一次通信。所以去世后一年是三个少年在写信，一晚上过了一年。&lt;br&gt;&lt;span style=&quot;color: rgb(51, 51, 51); font-family: &amp;quot;Helvetica Neue&amp;quot;, Helvetica, Arial, &amp;quot;PingFang SC&amp;quot;, &amp;quot;Hiragino Sans GB&amp;quot;, &amp;quot;Microsoft YaHei&amp;quot;, &amp;quot;WenQuanYi Micro Hei&amp;quot;, sans-serif; text-align: start; text-indent: 28px; background-color: rgb(255, 255, 255);&quot;&gt;每年8月13日至15日是盂兰盆节，晴美和月兔聊天。&lt;/span&gt;&lt;br style=&quot;font-size: 14px;&quot;&gt;&lt;/font&gt;" style="rounded=1;strokeColor=none;fillColor=#DDDDDD;align=center;arcSize=12;verticalAlign=top;whiteSpace=wrap;html=1;fontSize=14;fontFamily=Helvetica;fontColor=default;" parent="1" vertex="1">
                    <mxGeometry x="550" y="800" width="350" height="110" as="geometry"/>
                </mxCell>
                <mxCell id="Er0_FSA5xdFPDI5IZl6u-6" value="" style="fillColor=#fff2cc;rounded=0;strokeColor=#d6b656;fontFamily=Helvetica;fontSize=12;html=1;movable=1;resizable=1;rotatable=1;deletable=1;editable=1;connectable=1;" parent="1" vertex="1">
                    <mxGeometry x="160" y="520" width="2120" height="20" as="geometry"/>
                </mxCell>
                <mxCell id="Er0_FSA5xdFPDI5IZl6u-8" value="" style="group" parent="1" vertex="1" connectable="0">
                    <mxGeometry x="240" y="621" width="200" height="140" as="geometry"/>
                </mxCell>
                <mxCell id="Er0_FSA5xdFPDI5IZl6u-9" value="1970年丸光园" style="shape=mxgraph.infographic.ribbonSimple;notch1=0;notch2=25.6;notch=0;html=1;fillColor=#08CEFF;strokeColor=none;shadow=0;fontSize=17;fontColor=#FFFFFF;align=left;spacingLeft=10;fontStyle=1;rounded=1;fontFamily=Helvetica;" parent="Er0_FSA5xdFPDI5IZl6u-8" vertex="1">
                    <mxGeometry x="10" y="100" width="180" height="40" as="geometry"/>
                </mxCell>
                <mxCell id="Er0_FSA5xdFPDI5IZl6u-10" value="&lt;font style=&quot;font-size: 14px;&quot;&gt;皆月良和&lt;br&gt;去世&lt;br style=&quot;font-size: 14px;&quot;&gt;&lt;/font&gt;" style="rounded=1;strokeColor=none;fillColor=#DDDDDD;align=center;arcSize=12;verticalAlign=top;whiteSpace=wrap;html=1;fontSize=14;fontFamily=Helvetica;fontColor=default;" parent="Er0_FSA5xdFPDI5IZl6u-8" vertex="1">
                    <mxGeometry width="200" height="90" as="geometry"/>
                </mxCell>
                <mxCell id="Er0_FSA5xdFPDI5IZl6u-12" value="&lt;font style=&quot;font-size: 14px;&quot;&gt;1979?8年后的一年里，是三个少年回信。&lt;br style=&quot;font-size: 14px;&quot;&gt;&lt;/font&gt;" style="rounded=1;strokeColor=none;fillColor=#DDDDDD;align=center;arcSize=12;verticalAlign=top;whiteSpace=wrap;html=1;fontSize=14;fontFamily=Helvetica;fontColor=default;" parent="1" vertex="1">
                    <mxGeometry x="310" y="827" width="210" height="93" as="geometry"/>
                </mxCell>
                <mxCell id="T1ekDT1JVOHgqmzILH7V-2" value="浩介&lt;br style=&quot;font-size: 17px;&quot;&gt;藤川博&lt;br style=&quot;font-size: 17px;&quot;&gt;保罗 · 列侬" style="rounded=1;whiteSpace=wrap;html=1;fontSize=17;fontStyle=1;labelBackgroundColor=none;fillColor=#60a917;fontColor=#ffffff;strokeColor=#2D7600;" parent="1" vertex="1">
                    <mxGeometry x="10" y="340" width="150" height="80" as="geometry"/>
                </mxCell>
                <mxCell id="T1ekDT1JVOHgqmzILH7V-4" value="" style="group" parent="1" vertex="1" connectable="0">
                    <mxGeometry x="200" y="260" width="200" height="140" as="geometry"/>
                </mxCell>
                <mxCell id="BkZdQL9q9m6PkunKn8Eg-6" value="&lt;font style=&quot;font-size: 14px;&quot;&gt;浩介出生在小镇&lt;br style=&quot;font-size: 14px;&quot;&gt;&lt;/font&gt;" style="rounded=1;strokeColor=none;fillColor=#DDDDDD;align=center;arcSize=12;verticalAlign=top;whiteSpace=wrap;html=1;fontSize=14;fontFamily=Helvetica;fontColor=default;" parent="T1ekDT1JVOHgqmzILH7V-4" vertex="1">
                    <mxGeometry width="200" height="90" as="geometry"/>
                </mxCell>
                <mxCell id="BkZdQL9q9m6PkunKn8Eg-5" value="1957年5月 小镇" style="shape=mxgraph.infographic.ribbonSimple;notch1=0;notch2=25.6;notch=0;html=1;fillColor=#60a917;strokeColor=#2D7600;shadow=0;fontSize=17;align=left;spacingLeft=10;fontStyle=1;rounded=1;fontFamily=Helvetica;fontColor=#ffffff;" parent="T1ekDT1JVOHgqmzILH7V-4" vertex="1">
                    <mxGeometry x="20" y="100" width="170" height="40" as="geometry"/>
                </mxCell>
                <mxCell id="T1ekDT1JVOHgqmzILH7V-5" value="" style="group;align=right;" parent="1" vertex="1" connectable="0">
                    <mxGeometry x="420" y="260" width="200" height="140" as="geometry"/>
                </mxCell>
                <mxCell id="T1ekDT1JVOHgqmzILH7V-6" value="&lt;font style=&quot;font-size: 14px;&quot;&gt;披头士 The Beatles&lt;br&gt;在日本武道馆演出&lt;br style=&quot;font-size: 14px;&quot;&gt;&lt;/font&gt;" style="rounded=1;strokeColor=none;fillColor=#DDDDDD;align=center;arcSize=12;verticalAlign=top;whiteSpace=wrap;html=1;fontSize=14;fontFamily=Helvetica;fontColor=default;" parent="T1ekDT1JVOHgqmzILH7V-5" vertex="1">
                    <mxGeometry width="200" height="90" as="geometry"/>
                </mxCell>
                <mxCell id="T1ekDT1JVOHgqmzILH7V-7" value="1966年 东京" style="shape=mxgraph.infographic.ribbonSimple;notch1=0;notch2=25.6;notch=0;html=1;fillColor=#60a917;strokeColor=#2D7600;shadow=0;fontSize=17;align=left;spacingLeft=10;fontStyle=1;rounded=1;fontFamily=Helvetica;fontColor=#ffffff;" parent="T1ekDT1JVOHgqmzILH7V-5" vertex="1">
                    <mxGeometry x="20" y="100" width="160" height="40" as="geometry"/>
                </mxCell>
                <mxCell id="T1ekDT1JVOHgqmzILH7V-8" value="" style="group;align=right;" parent="1" vertex="1" connectable="0">
                    <mxGeometry x="640" y="260" width="200" height="140" as="geometry"/>
                </mxCell>
                <mxCell id="T1ekDT1JVOHgqmzILH7V-9" value="&lt;font style=&quot;font-size: 14px;&quot;&gt;表哥去世&lt;br&gt;浩介获得表哥的摩托车和唱片&lt;br style=&quot;font-size: 14px;&quot;&gt;&lt;/font&gt;" style="rounded=1;strokeColor=none;fillColor=#DDDDDD;align=center;arcSize=12;verticalAlign=top;whiteSpace=wrap;html=1;fontSize=14;fontFamily=Helvetica;fontColor=default;" parent="T1ekDT1JVOHgqmzILH7V-8" vertex="1">
                    <mxGeometry width="200" height="90" as="geometry"/>
                </mxCell>
                <mxCell id="T1ekDT1JVOHgqmzILH7V-10" value="1969年 小镇" style="shape=mxgraph.infographic.ribbonSimple;notch1=0;notch2=25.6;notch=0;html=1;fillColor=#60a917;strokeColor=#2D7600;shadow=0;fontSize=17;align=left;spacingLeft=10;fontStyle=1;rounded=1;fontFamily=Helvetica;fontColor=#ffffff;" parent="T1ekDT1JVOHgqmzILH7V-8" vertex="1">
                    <mxGeometry x="20" y="100" width="160" height="40" as="geometry"/>
                </mxCell>
                <mxCell id="T1ekDT1JVOHgqmzILH7V-11" value="" style="group" parent="1" vertex="1" connectable="0">
                    <mxGeometry x="860" y="260" width="201.02999999999997" height="140" as="geometry"/>
                </mxCell>
                <mxCell id="BkZdQL9q9m6PkunKn8Eg-8" value="1970年 小镇、东京" style="shape=mxgraph.infographic.ribbonSimple;notch1=0;notch2=25.6;notch=0;html=1;fillColor=#60a917;strokeColor=#2D7600;shadow=0;fontSize=17;fontColor=#ffffff;align=left;spacingLeft=10;fontStyle=1;rounded=1;fontFamily=Helvetica;" parent="T1ekDT1JVOHgqmzILH7V-11" vertex="1">
                    <mxGeometry x="10" y="100" width="180" height="40" as="geometry"/>
                </mxCell>
                <mxCell id="BkZdQL9q9m6PkunKn8Eg-9" value="&lt;font style=&quot;font-size: 14px;&quot;&gt;家境每况愈下，&lt;br&gt;咨询浪矢杂货店，&lt;br&gt;跟着父母逃亡，&lt;br&gt;独自在服务区跑掉&lt;br&gt;&lt;br&gt;&lt;br style=&quot;font-size: 14px;&quot;&gt;&lt;/font&gt;" style="rounded=1;strokeColor=none;fillColor=#DDDDDD;align=center;arcSize=12;verticalAlign=top;whiteSpace=wrap;html=1;fontSize=14;fontFamily=Helvetica;fontColor=default;" parent="T1ekDT1JVOHgqmzILH7V-11" vertex="1">
                    <mxGeometry width="201.03" height="90" as="geometry"/>
                </mxCell>
                <mxCell id="T1ekDT1JVOHgqmzILH7V-15" value="&lt;font style=&quot;font-size: 14px;&quot;&gt;日本举办世博会&lt;br&gt;半途被刑警带走&lt;br&gt;住进丸光园&lt;br style=&quot;font-size: 14px;&quot;&gt;&lt;/font&gt;" style="rounded=1;strokeColor=none;fillColor=#DDDDDD;align=center;arcSize=12;verticalAlign=top;whiteSpace=wrap;html=1;fontSize=14;fontFamily=Helvetica;fontColor=default;" parent="1" vertex="1">
                    <mxGeometry x="860" y="410" width="201.03" height="60" as="geometry"/>
                </mxCell>
                <mxCell id="T1ekDT1JVOHgqmzILH7V-16" value="" style="group" parent="1" vertex="1" connectable="0">
                    <mxGeometry x="1290" y="257.14" width="200" height="142.86" as="geometry"/>
                </mxCell>
                <mxCell id="BkZdQL9q9m6PkunKn8Eg-11" value="1988年腊月 丸光园" style="shape=mxgraph.infographic.ribbonSimple;notch1=0;notch2=25.6;notch=0;html=1;fillColor=#60a917;strokeColor=#2D7600;shadow=0;fontSize=17;fontColor=#ffffff;align=left;spacingLeft=10;fontStyle=1;rounded=1;fontFamily=Helvetica;verticalAlign=middle;gradientColor=none;" parent="T1ekDT1JVOHgqmzILH7V-16" vertex="1">
                    <mxGeometry x="15.87" y="100" width="174.13" height="42.86" as="geometry"/>
                </mxCell>
                <mxCell id="BkZdQL9q9m6PkunKn8Eg-12" value="&lt;font style=&quot;font-size: 14px;&quot;&gt;浩介学了木工，&lt;br&gt;火灾后到丸光园，邂逅晴美。&lt;br&gt;再回到浪矢杂货店，&lt;br&gt;遇到贵之，得到回信的消息&lt;br style=&quot;font-size: 14px;&quot;&gt;&lt;/font&gt;" style="rounded=1;strokeColor=none;fillColor=#DDDDDD;align=center;arcSize=12;verticalAlign=top;whiteSpace=wrap;html=1;fontSize=14;fontFamily=Helvetica;fontColor=default;" parent="T1ekDT1JVOHgqmzILH7V-16" vertex="1">
                    <mxGeometry width="200" height="90" as="geometry"/>
                </mxCell>
                <mxCell id="T1ekDT1JVOHgqmzILH7V-17" value="" style="rounded=1;whiteSpace=wrap;html=1;fontSize=17;fontStyle=1;labelBackgroundColor=none;fillColor=#08CEFF;fontColor=#ffffff;strokeColor=#2D7600;" parent="1" vertex="1">
                    <mxGeometry x="10" y="700" width="150" height="80" as="geometry"/>
                </mxCell>
                <mxCell id="T1ekDT1JVOHgqmzILH7V-18" value="" style="group" parent="1" vertex="1" connectable="0">
                    <mxGeometry x="1070" y="260" width="200" height="140" as="geometry"/>
                </mxCell>
                <mxCell id="T1ekDT1JVOHgqmzILH7V-19" value="197?年6月" style="shape=mxgraph.infographic.ribbonSimple;notch1=0;notch2=25.6;notch=0;html=1;fillColor=#08CEFF;strokeColor=none;shadow=0;fontSize=17;fontColor=#FFFFFF;align=left;spacingLeft=10;fontStyle=1;rounded=1;fontFamily=Helvetica;" parent="T1ekDT1JVOHgqmzILH7V-18" vertex="1">
                    <mxGeometry x="20" y="100" width="160" height="40" as="geometry"/>
                </mxCell>
                <mxCell id="T1ekDT1JVOHgqmzILH7V-20" value="&lt;font style=&quot;font-size: 14px;&quot;&gt;&lt;b style=&quot;&quot;&gt;&lt;font color=&quot;#08ceff&quot;&gt;川边绿&lt;br&gt;&lt;/font&gt;&lt;/b&gt;孩子一岁&lt;br&gt;落海时二十九岁&lt;br style=&quot;font-size: 14px;&quot;&gt;&lt;/font&gt;" style="rounded=1;strokeColor=none;fillColor=#DDDDDD;align=center;arcSize=12;verticalAlign=top;whiteSpace=wrap;html=1;fontSize=14;fontFamily=Helvetica;fontColor=default;" parent="T1ekDT1JVOHgqmzILH7V-18" vertex="1">
                    <mxGeometry width="200" height="90" as="geometry"/>
                </mxCell>
                <mxCell id="T1ekDT1JVOHgqmzILH7V-21" value="" style="group" parent="1" vertex="1" connectable="0">
                    <mxGeometry x="1520" y="257.14" width="200" height="140" as="geometry"/>
                </mxCell>
                <mxCell id="T1ekDT1JVOHgqmzILH7V-22" value="1991年 医院" style="shape=mxgraph.infographic.ribbonSimple;notch1=0;notch2=25.6;notch=0;html=1;fillColor=#08CEFF;strokeColor=none;shadow=0;fontSize=17;fontColor=#FFFFFF;align=left;spacingLeft=10;fontStyle=1;rounded=1;fontFamily=Helvetica;" parent="T1ekDT1JVOHgqmzILH7V-21" vertex="1">
                    <mxGeometry x="20" y="100" width="160" height="40" as="geometry"/>
                </mxCell>
                <mxCell id="T1ekDT1JVOHgqmzILH7V-23" value="&lt;font style=&quot;font-size: 14px;&quot;&gt;火灾三年后&lt;br&gt;绿河的女儿自杀未遂&lt;br&gt;小芹来告诉她全部的身世&lt;br style=&quot;font-size: 14px;&quot;&gt;&lt;/font&gt;" style="rounded=1;strokeColor=none;fillColor=#DDDDDD;align=center;arcSize=12;verticalAlign=top;whiteSpace=wrap;html=1;fontSize=14;fontFamily=Helvetica;fontColor=default;" parent="T1ekDT1JVOHgqmzILH7V-21" vertex="1">
                    <mxGeometry width="200" height="90" as="geometry"/>
                </mxCell>
                <mxCell id="Er0_FSA5xdFPDI5IZl6u-7" value="" style="fillColor=#fff2cc;rounded=0;strokeColor=#d6b656;fontFamily=Helvetica;fontSize=12;html=1;movable=1;resizable=1;rotatable=1;deletable=1;editable=1;connectable=1;" parent="1" vertex="1">
                    <mxGeometry x="160" y="1050" width="2140" height="20" as="geometry"/>
                </mxCell>
                <mxCell id="Lcyl5jMZLTwqMklo087K-86" value="1979年11月&lt;br style=&quot;font-size: 16px;&quot;&gt;解忧杂货店" style="shape=mxgraph.infographic.ribbonSimple;notch1=0;notch2=25.6;notch=0;html=1;fillColor=#0050ef;strokeColor=#001DBC;shadow=0;fontSize=16;fontColor=#ffffff;align=left;spacingLeft=10;fontStyle=1;rounded=1;fontFamily=Helvetica;" parent="1" vertex="1">
                    <mxGeometry x="970" y="1040" width="180" height="40" as="geometry"/>
                </mxCell>
                <mxCell id="Lcyl5jMZLTwqMklo087K-87" value="&lt;font style=&quot;font-size: 14px;&quot;&gt;&lt;font style=&quot;font-size: 14px;&quot; color=&quot;#10739E&quot;&gt;&lt;b style=&quot;font-size: 14px;&quot;&gt;月兔 7&lt;br&gt;&lt;/b&gt;&lt;/font&gt;&lt;br style=&quot;font-size: 14px;&quot;&gt;咨询2012年的三个少年&lt;br&gt;关于生病的爱人和备赛1980年莫斯科奥运会训练&lt;br&gt;&lt;br style=&quot;font-size: 14px;&quot;&gt;&lt;/font&gt;" style="rounded=1;strokeColor=none;fillColor=#DDDDDD;align=center;arcSize=12;verticalAlign=top;whiteSpace=wrap;html=1;fontSize=14;fontFamily=Helvetica;fontColor=default;" parent="1" vertex="1">
                    <mxGeometry x="960" y="936" width="200" height="90" as="geometry"/>
                </mxCell>
                <mxCell id="T1ekDT1JVOHgqmzILH7V-24" value="&lt;font style=&quot;font-size: 19px;&quot;&gt;&lt;font color=&quot;#10739e&quot; style=&quot;font-size: 19px;&quot;&gt;&lt;b style=&quot;font-size: 19px;&quot;&gt;浪矢雄治到底是哪一年去世？&lt;br style=&quot;font-size: 19px;&quot;&gt;&lt;/b&gt;&lt;/font&gt;1980？1979？&lt;br style=&quot;font-size: 19px;&quot;&gt;&lt;/font&gt;" style="rounded=1;strokeColor=#d79b00;fillColor=#ffcd28;align=center;arcSize=12;verticalAlign=top;whiteSpace=wrap;html=1;fontSize=19;fontFamily=Helvetica;gradientColor=#ffa500;" parent="1" vertex="1">
                    <mxGeometry x="1380" y="827" width="260" height="100" as="geometry"/>
                </mxCell>
                <mxCell id="T1ekDT1JVOHgqmzILH7V-25" value="&lt;font style=&quot;font-size: 14px;&quot;&gt;&lt;font style=&quot;font-size: 14px;&quot; color=&quot;#10739E&quot;&gt;&lt;b style=&quot;font-size: 14px;&quot;&gt;月兔 7&lt;/b&gt;&lt;/font&gt;&lt;br style=&quot;font-size: 14px;&quot;&gt;爱人去世&lt;br&gt;日本抵制奥运会&lt;br&gt;没有入选&lt;br style=&quot;font-size: 14px;&quot;&gt;&lt;/font&gt;" style="rounded=1;strokeColor=none;fillColor=#DDDDDD;align=center;arcSize=12;verticalAlign=top;whiteSpace=wrap;html=1;fontSize=14;fontFamily=Helvetica;fontColor=default;" parent="1" vertex="1">
                    <mxGeometry x="1190" y="936" width="200" height="90" as="geometry"/>
                </mxCell>
                <mxCell id="T1ekDT1JVOHgqmzILH7V-26" value="1980年" style="shape=mxgraph.infographic.ribbonSimple;notch1=0;notch2=25.6;notch=0;html=1;fillColor=#0050ef;strokeColor=#001DBC;shadow=0;fontSize=16;fontColor=#ffffff;align=left;spacingLeft=10;fontStyle=1;rounded=1;fontFamily=Helvetica;" parent="1" vertex="1">
                    <mxGeometry x="1210" y="1040" width="180" height="40" as="geometry"/>
                </mxCell>
                <mxCell id="T1ekDT1JVOHgqmzILH7V-27" value="" style="group" parent="1" vertex="1" connectable="0">
                    <mxGeometry x="1400" y="620" width="200" height="140" as="geometry"/>
                </mxCell>
                <mxCell id="T1ekDT1JVOHgqmzILH7V-28" value="2012年9月家中" style="shape=mxgraph.infographic.ribbonSimple;notch1=0;notch2=25.6;notch=0;html=1;fillColor=#08CEFF;strokeColor=none;shadow=0;fontSize=17;fontColor=#FFFFFF;align=left;spacingLeft=10;fontStyle=1;rounded=1;fontFamily=Helvetica;" parent="T1ekDT1JVOHgqmzILH7V-27" vertex="1">
                    <mxGeometry x="20" y="100" width="160" height="40" as="geometry"/>
                </mxCell>
                <mxCell id="T1ekDT1JVOHgqmzILH7V-29" value="&lt;font style=&quot;font-size: 14px;&quot;&gt;&lt;b style=&quot;&quot;&gt;&lt;font color=&quot;#08ceff&quot;&gt;浪矢骏吾&lt;br&gt;&lt;/font&gt;&lt;br&gt;&lt;/b&gt;发布复活信息&lt;br&gt;&lt;br style=&quot;font-size: 14px;&quot;&gt;&lt;/font&gt;" style="rounded=1;strokeColor=none;fillColor=#DDDDDD;align=center;arcSize=12;verticalAlign=top;whiteSpace=wrap;html=1;fontSize=14;fontFamily=Helvetica;fontColor=default;" parent="T1ekDT1JVOHgqmzILH7V-27" vertex="1">
                    <mxGeometry width="200" height="90" as="geometry"/>
                </mxCell>
                <mxCell id="T1ekDT1JVOHgqmzILH7V-30" value="" style="group" parent="T1ekDT1JVOHgqmzILH7V-27" vertex="1" connectable="0">
                    <mxGeometry width="200" height="140" as="geometry"/>
                </mxCell>
                <mxCell id="T1ekDT1JVOHgqmzILH7V-31" value="2011年" style="shape=mxgraph.infographic.ribbonSimple;notch1=0;notch2=25.6;notch=0;html=1;fillColor=#08CEFF;strokeColor=none;shadow=0;fontSize=17;fontColor=#FFFFFF;align=left;spacingLeft=10;fontStyle=1;rounded=1;fontFamily=Helvetica;" parent="T1ekDT1JVOHgqmzILH7V-30" vertex="1">
                    <mxGeometry x="20" y="100" width="160" height="40" as="geometry"/>
                </mxCell>
                <mxCell id="T1ekDT1JVOHgqmzILH7V-32" value="&lt;font style=&quot;font-size: 14px;&quot;&gt;&lt;b style=&quot;&quot;&gt;&lt;font color=&quot;#08ceff&quot;&gt;浪矢贵之&lt;br&gt;&lt;/font&gt;&lt;br&gt;&lt;/b&gt;癌症去世&lt;br&gt;&lt;br style=&quot;font-size: 14px;&quot;&gt;&lt;/font&gt;" style="rounded=1;strokeColor=none;fillColor=#DDDDDD;align=center;arcSize=12;verticalAlign=top;whiteSpace=wrap;html=1;fontSize=14;fontFamily=Helvetica;fontColor=default;" parent="T1ekDT1JVOHgqmzILH7V-30" vertex="1">
                    <mxGeometry width="200" height="90" as="geometry"/>
                </mxCell>
                <mxCell id="Lcyl5jMZLTwqMklo087K-47" value="" style="group" parent="1" vertex="1" connectable="0">
                    <mxGeometry x="1890" y="934.5" width="220" height="140" as="geometry"/>
                </mxCell>
                <mxCell id="T1ekDT1JVOHgqmzILH7V-33" value="" style="group" parent="Lcyl5jMZLTwqMklo087K-47" vertex="1" connectable="0">
                    <mxGeometry width="200" height="140" as="geometry"/>
                </mxCell>
                <mxCell id="Lcyl5jMZLTwqMklo087K-48" value="2010年？体育馆" style="shape=mxgraph.infographic.ribbonSimple;notch1=0;notch2=25.6;notch=0;html=1;fillColor=#F2931E;strokeColor=none;shadow=0;fontSize=17;fontColor=#FFFFFF;align=left;spacingLeft=10;fontStyle=1;rounded=1;fontFamily=Helvetica;" parent="T1ekDT1JVOHgqmzILH7V-33" vertex="1">
                    <mxGeometry y="100" width="200" height="40" as="geometry"/>
                </mxCell>
                <mxCell id="Lcyl5jMZLTwqMklo087K-49" value="&lt;font style=&quot;font-size: 14px;&quot;&gt;&lt;span style=&quot;font-weight: 700;&quot;&gt;&lt;font color=&quot;#f2931e&quot;&gt;小芹&lt;/font&gt;&lt;/span&gt;&lt;br style=&quot;font-size: 14px;&quot;&gt;在体育馆表演&lt;br&gt;纪念克郎&lt;br&gt;《重生》&lt;br style=&quot;font-size: 14px;&quot;&gt;&lt;/font&gt;" style="rounded=1;strokeColor=none;fillColor=#DDDDDD;align=center;arcSize=12;verticalAlign=top;whiteSpace=wrap;html=1;fontSize=14;fontFamily=Helvetica;fontColor=default;" parent="T1ekDT1JVOHgqmzILH7V-33" vertex="1">
                    <mxGeometry width="200" height="90" as="geometry"/>
                </mxCell>
                <mxCell id="Lcyl5jMZLTwqMklo087K-108" value="" style="group" parent="1" vertex="1" connectable="0">
                    <mxGeometry x="1420" y="940" width="200" height="137" as="geometry"/>
                </mxCell>
                <mxCell id="Lcyl5jMZLTwqMklo087K-41" value="1980年解忧杂货店" style="shape=mxgraph.infographic.ribbonSimple;notch1=0;notch2=25.6;notch=0;html=1;fillColor=#F2931E;strokeColor=none;shadow=0;fontSize=17;fontColor=#FFFFFF;align=left;spacingLeft=10;fontStyle=1;rounded=1;fontFamily=Helvetica;" parent="Lcyl5jMZLTwqMklo087K-108" vertex="1">
                    <mxGeometry y="97" width="200" height="40" as="geometry"/>
                </mxCell>
                <mxCell id="Lcyl5jMZLTwqMklo087K-107" value="&lt;font style=&quot;font-size: 14px;&quot;&gt;&lt;span style=&quot;font-weight: 700;&quot;&gt;&lt;font color=&quot;#f2931e&quot;&gt;松冈克郎 3&lt;/font&gt;&lt;/span&gt;&lt;br style=&quot;font-size: 14px;&quot;&gt;回到家乡参加奶奶的葬礼&lt;br&gt;偶遇月兔&lt;br&gt;咨询梦想和继承家业&lt;br style=&quot;font-size: 14px;&quot;&gt;&lt;/font&gt;" style="rounded=1;strokeColor=none;fillColor=#DDDDDD;align=center;arcSize=12;verticalAlign=top;whiteSpace=wrap;html=1;fontSize=14;fontFamily=Helvetica;fontColor=default;" parent="Lcyl5jMZLTwqMklo087K-108" vertex="1">
                    <mxGeometry width="200" height="90" as="geometry"/>
                </mxCell>
                <mxCell id="Er0_FSA5xdFPDI5IZl6u-5" value="" style="group" parent="1" vertex="1" connectable="0">
                    <mxGeometry x="1654" y="936" width="200" height="138.5" as="geometry"/>
                </mxCell>
                <mxCell id="Lcyl5jMZLTwqMklo087K-45" value="1988年平安夜 丸光园" style="shape=mxgraph.infographic.ribbonSimple;notch1=0;notch2=25.6;notch=0;html=1;fillColor=#F2931E;strokeColor=none;shadow=0;fontSize=17;fontColor=#FFFFFF;align=left;spacingLeft=10;fontStyle=1;rounded=1;fontFamily=Helvetica;" parent="Er0_FSA5xdFPDI5IZl6u-5" vertex="1">
                    <mxGeometry y="98.5" width="200" height="40" as="geometry"/>
                </mxCell>
                <mxCell id="Lcyl5jMZLTwqMklo087K-46" value="&lt;font style=&quot;font-size: 14px;&quot;&gt;&lt;span style=&quot;font-weight: 700;&quot;&gt;&lt;font color=&quot;#f2931e&quot;&gt;松冈克郎&lt;/font&gt;&lt;/span&gt;&lt;br style=&quot;font-size: 14px;&quot;&gt;在孤儿院丸光园表演&lt;br&gt;认识小芹，救出小辰&lt;br&gt;死于火灾&lt;br style=&quot;font-size: 14px;&quot;&gt;&lt;/font&gt;" style="rounded=1;strokeColor=none;fillColor=#DDDDDD;align=center;arcSize=12;verticalAlign=top;whiteSpace=wrap;html=1;fontSize=14;fontFamily=Helvetica;fontColor=default;" parent="Er0_FSA5xdFPDI5IZl6u-5" vertex="1">
                    <mxGeometry width="200" height="90" as="geometry"/>
                </mxCell>
                <mxCell id="T1ekDT1JVOHgqmzILH7V-35" value="松冈克郎&lt;br&gt;鱼店音乐人" style="rounded=1;whiteSpace=wrap;html=1;fontSize=17;fontStyle=1;labelBackgroundColor=none;fillColor=#f0a30a;fontColor=#000000;strokeColor=#BD7000;" parent="1" vertex="1">
                    <mxGeometry x="10" y="1070" width="150" height="80" as="geometry"/>
                </mxCell>
                <mxCell id="T1ekDT1JVOHgqmzILH7V-36" value="月兔&lt;br&gt;静子" style="rounded=1;whiteSpace=wrap;html=1;fontSize=17;fontStyle=1;labelBackgroundColor=none;fillColor=#0050ef;fontColor=#ffffff;strokeColor=#001DBC;" parent="1" vertex="1">
                    <mxGeometry x="10" y="990" width="150" height="80" as="geometry"/>
                </mxCell>
                <mxCell id="T1ekDT1JVOHgqmzILH7V-37" value="武藤晴美&lt;br&gt;迷途的小狗" style="rounded=1;whiteSpace=wrap;html=1;fontSize=17;fontStyle=1;labelBackgroundColor=none;fillColor=#08CEFF;fontColor=#ffffff;strokeColor=#2D7600;" parent="1" vertex="1">
                    <mxGeometry x="10" y="1240" width="150" height="80" as="geometry"/>
                </mxCell>
                <mxCell id="T1ekDT1JVOHgqmzILH7V-38" value="" style="group" parent="1" vertex="1" connectable="0">
                    <mxGeometry x="980" y="1160" width="200" height="140" as="geometry"/>
                </mxCell>
                <mxCell id="T1ekDT1JVOHgqmzILH7V-39" value="1970年丸光园" style="shape=mxgraph.infographic.ribbonSimple;notch1=0;notch2=25.6;notch=0;html=1;fillColor=#6a00ff;strokeColor=#3700CC;shadow=0;fontSize=17;align=left;spacingLeft=10;fontStyle=1;rounded=1;fontFamily=Helvetica;fontColor=#ffffff;" parent="T1ekDT1JVOHgqmzILH7V-38" vertex="1">
                    <mxGeometry x="10" y="100" width="180" height="40" as="geometry"/>
                </mxCell>
                <mxCell id="T1ekDT1JVOHgqmzILH7V-40" value="&lt;font style=&quot;font-size: 14px;&quot;&gt;皆月良和&lt;br&gt;去世&lt;br style=&quot;font-size: 14px;&quot;&gt;&lt;/font&gt;" style="rounded=1;strokeColor=none;fillColor=#DDDDDD;align=center;arcSize=12;verticalAlign=top;whiteSpace=wrap;html=1;fontSize=14;fontFamily=Helvetica;fontColor=default;" parent="T1ekDT1JVOHgqmzILH7V-38" vertex="1">
                    <mxGeometry width="200" height="90" as="geometry"/>
                </mxCell>
            </root>
        </mxGraphModel>
    </diagram>
</mxfile>